#!OML:ASF H:\ManfredETheater\Project 1\Capture day 1\Session 1\subject.ASF
:FULLY-SPECIFIED
:DEGREES
331
root 1.82033 17.9963 -5.05926 8.72613 -2.92753 1.94116
lowerback -0.0485918 -1.46437 -5.68777
upperback 2.64574 -1.92224 2.34288
thorax 3.03839 -1.13605 5.5746
lowerneck -11.5286 -2.36534 -2.93824
upperneck 38.1686 -1.84782 -2.69852
head 15.3082 -1.60007 -0.922264
rclavicle 1.63997e-014 -1.11319e-014
rhumerus -23.52 19.438 -17.182
rradius 94.2458
rwrist -79.2651
rhand 42.3146 -14.4407
rfingers 7.12502
rthumb 64.2839 -22.7664
lclavicle 1.63997e-014 -1.11319e-014
lhumerus -34.7442 -49.7349 30.9952
lradius 72.8471
lwrist 45.0654
lhand 75.1383 29.5378
lfingers 7.12502
lthumb 71.0417 -52.5499
rfemur -17.9553 -0.435602 7.85893
rtibia 29.4692
rfoot -14.2448 -13.9384
rtoes 1.64291
lfemur -17.0431 -3.5514 -14.4384
ltibia 30.8213
lfoot -14.9047 16.1604
ltoes -7.95609
332
root 1.81033 17.9962 -5.05049 8.77678 -3.06664 1.90453
lowerback -0.029832 -1.49442 -5.68146
upperback 2.51332 -1.96807 2.46698
thorax 2.90104 -1.15277 5.70211
lowerneck -11.4819 -2.24333 -2.91666
upperneck 38.1703 -1.60148 -2.89329
head 15.2971 -1.52001 -0.968773
rclavicle -9.54166e-015 2.38542e-014
rhumerus -22.887 16.8929 -17.3313
rradius 95.2647
rwrist -79.9358
rhand 38.6201 -12.384
rfingers 7.12502
rthumb 61.2418 -24.7911
lclavicle -9.54166e-015 2.38542e-014
lhumerus -36.5407 -47.3369 33.0361
lradius 74.0035
lwrist 47.4157
lhand 73.8683 25.9622
lfingers 7.12502
lthumb 71.7804 -53.0528
rfemur -18.0313 -0.401166 7.92429
rtibia 29.4825
rfoot -14.2437 -13.8489
rtoes 1.57556
lfemur -17.0075 -3.54121 -14.3798
ltibia 30.7813
lfoot -14.9344 16.3003
ltoes -7.94601
333
root 1.8011 17.9958 -5.04096 8.82193 -3.22878 1.87013
lowerback -0.0197047 -1.51013 -5.67336
upperback 2.38677 -1.99387 2.58608
thorax 2.77175 -1.15964 5.82389
lowerneck -11.4421 -2.13054 -2.90796
upperneck 38.1748 -1.37217 -3.06865
head 15.2902 -1.44622 -1.0078
rclavicle -2.5842e-014 3.97569e-015
rhumerus -22.3369 14.3518 -17.558
rradius 96.2387
rwrist -80.3914
rhand 34.6385 -10.5834
rfingers 7.12502
rthumb 57.8218 -26.4636
lclavicle -2.5842e-014 3.97569e-015
lhumerus -38.1142 -44.7364 34.8643
lradius 75.2514
lwrist 49.638
lhand 72.004 22.6163
lfingers 7.12502
lthumb 72.7563 -51.4269
rfemur -18.1047 -0.36323 7.98193
rtibia 29.4944
rfoot -14.2397 -13.7415
rtoes 1.49564
lfemur -16.9587 -3.52367 -14.3297
ltibia 30.7435
lfoot -14.9726 16.45
ltoes -7.92593
334
root 1.79263 17.995 -5.03073 8.85999 -3.40928 1.84142
lowerback -0.0191224 -1.5108 -5.66618
upperback 2.26701 -1.99858 2.69704
thorax 2.65167 -1.15622 5.93814
lowerneck -11.4077 -2.02939 -2.90751
upperneck 38.1823 -1.16464 -3.22501
head 15.2868 -1.38011 -1.04102
rclavicle 1.43125e-014 -1.35174e-014
rhumerus -21.874 11.838 -17.8472
rradius 97.1625
rwrist -80.6467
rhand 30.4023 -9.0508
rfingers 7.12502
rthumb 54.0682 -27.8426
lclavicle 1.43125e-014 -1.35174e-014
lhumerus -39.4892 -41.9856 36.5017
lradius 76.5935
lwrist 51.7674
lhand 69.6368 19.663
lfingers 7.12502
lthumb 73.777 -47.267
rfemur -18.1739 -0.325705 8.02849
rtibia 29.5076
rfoot -14.2348 -13.6169
rtoes 1.40614
lfemur -16.8965 -3.50103 -14.2918
ltibia 30.7079
lfoot -15.018 16.607
ltoes -7.89671
335
root 1.78489 17.994 -5.01986 8.88919 -3.60198 1.82099
lowerback -0.0274208 -1.49604 -5.66136
upperback 2.15437 -1.98166 2.79667
thorax 2.54051 -1.14224 6.04225
lowerneck -11.3759 -1.94237 -2.91138
upperneck 38.192 -0.984141 -3.36147
head 15.2856 -1.32317 -1.06947
rclavicle 6.36111e-015 -2.78299e-014
rhumerus -21.5031 9.37213 -18.1829
rradius 98.0286
rwrist -80.7153
rhand 25.9638 -7.78066
rfingers 7.12502
rthumb 50.0445 -28.98
lclavicle 6.36111e-015 -2.78299e-014
lhumerus -40.691 -39.1342 37.9739
lradius 78.0267
lwrist 53.782
lhand 66.9 17.1207
lfingers 7.12502
lthumb 74.5942 -40.573
rfemur -18.2368 -0.291488 8.06184
rtibia 29.5247
rfoot -14.231 -13.4778
rtoes 1.31077
lfemur -16.8211 -3.47514 -14.2682
ltibia 30.6745
lfoot -15.069 16.7678
ltoes -7.8595
336
root 1.77777 17.9927 -5.00844 8.90762 -3.7997 1.80973
lowerback -0.0421899 -1.46575 -5.65854
upperback 2.04876 -1.94311 2.88217
thorax 2.43654 -1.11759 6.13305
lowerneck -11.345 -1.8719 -2.91545
upperneck 38.204 -0.835709 -3.47732
head 15.2858 -1.27686 -1.09433
rclavicle -3.57812e-015 4.77083e-015
rhumerus -21.2293 6.97201 -18.5477
rradius 98.8287
rwrist -80.6044
rhand 21.3892 -6.75822
rfingers 7.12502
rthumb 45.8269 -29.9245
lclavicle -3.57812e-015 4.77083e-015
lhumerus -41.7424 -36.2269 39.3056
lradius 79.5448
lwrist 55.631
lhand 63.9258 14.9409
lfingers 7.12502
lthumb 74.9719 -31.8878
rfemur -18.2904 -0.261787 8.08204
rtibia 29.5474
rfoot -14.2305 -13.3293
rtoes 1.21421
lfemur -16.7334 -3.44738 -14.2592
ltibia 30.6444
lfoot -15.124 16.9277
ltoes -7.81702
337
root 1.77116 17.9911 -4.99659 8.91355 -3.9944 1.8066
lowerback -0.0597109 -1.42031 -5.65526
upperback 1.9496 -1.88367 2.95135
thorax 2.33694 -1.08247 6.20683
lowerneck -11.3138 -1.81992 -2.91698
upperneck 38.2182 -0.723776 -3.57057
head 15.2868 -1.24237 -1.11587
rclavicle -1.19271e-014 7.95139e-016
rhumerus -21.057 4.6533 -18.9235
rradius 99.5536
rwrist -80.3071
rhand 16.7491 -5.95066
rfingers 7.12502
rthumb 41.4955 -30.7075
lclavicle -1.19271e-014 7.95139e-016
lhumerus -42.6613 -33.3007 40.5191
lradius 81.1407
lwrist 57.2562
lhand 60.8207 13.0662
lfingers 7.12502
lthumb 74.7591 -22.2868
rfemur -18.3313 -0.236736 8.09149
rtibia 29.5765
rfoot -14.2354 -13.1776
rtoes 1.1211
lfemur -16.6348 -3.41858 -14.2622
ltibia 30.6192
lfoot -15.1812 17.0809
ltoes -7.77254
